<svg cache-id="cd1bfa2b819a4c33902c1d311f589edb" id="eC1pIkVWcXd1" xmlns="http://www.w3.org/2000/svg" xmlns:xlink="http://www.w3.org/1999/xlink" viewBox="0 0 300 300" shape-rendering="geometricPrecision" text-rendering="geometricPrecision"><path d="M-0.00045,150C-0.00045,69.112174,62.54625,0.000015,150,0C258.187135,0,300.000164,96.384902,300.000082,150s-41.281315,150.000015-150.000082,150-150.00045-98.35194-150.00045-150Z" transform="matrix(.951621 0 0 0.953926 7.25702 6.9111)" fill="none" stroke="#000" stroke-width="12" stroke-linejoin="round"/><path d="M69.457735,79.744817q80.542095-40.935673,160.021266.531632" transform="translate(.531632 0)" fill="none" stroke="#000" stroke-width="10" stroke-linecap="round"/><path d="M100.292398,114.832536q103.185085,0,99.946836,0q18.607124.000005,18.607124,23.391812q0,19.138756-18.607124,19.138756h-50.239234" transform="matrix(1 0 0 1.198442-9.625368-27.040655)" fill="none" stroke="#050505" stroke-width="10" stroke-linecap="round" stroke-linejoin="round"/><path d="M110.92504,139.819245c119.085423,90.377459,119.085423,90.377459,119.085423,90.909091q0,.531632-139.343773-.531632-27.588881-.000001-20.677493-28.176503" transform="translate(.000171 0.000001)" fill="none" stroke="#050505" stroke-width="10" stroke-linecap="round" stroke-linejoin="round"/><path d="M132.721956,144.072302q62.732589.531632,63.264222.531632" transform="matrix(1.134334 0.016663 0.014688-.999892-30.577701 286.453722)" fill="none" stroke="#000" stroke-width="6" stroke-linecap="round" stroke-linejoin="round"/><path d="M100.292398,110.579479q0,35.083133,0,35.083133" transform="translate(.00017 0)" fill="none" stroke="#000" stroke-width="6" stroke-linecap="round"/></svg>
